<svg width="505" height="94" viewBox="0 0 505 94" fill="none" xmlns="http://www.w3.org/2000/svg">
<path d="M0.872 76V5.92H12.872V43.936H21.32L33.896 23.2H47.24L31.592 48.736L47.816 76H34.184L21.32 54.112H12.872V76H0.872ZM57.8585 76V65.152H75.9065V34.048H59.7785V23.2H87.9065V65.152H104.131V76H57.8585ZM81.0905 14.368C78.6585 14.368 76.7385 13.76 75.3305 12.544C73.9225 11.264 73.2185 9.568 73.2185 7.456C73.2185 5.344 73.9225 3.68 75.3305 2.464C76.7385 1.184 78.6585 0.543999 81.0905 0.543999C83.5225 0.543999 85.4425 1.184 86.8505 2.464C88.2585 3.68 88.9625 5.344 88.9625 7.456C88.9625 9.568 88.2585 11.264 86.8505 12.544C85.4425 13.76 83.5225 14.368 81.0905 14.368ZM117.437 76V23.2H129.149V33.472C129.789 30.016 131.357 27.296 133.853 25.312C136.413 23.264 139.709 22.24 143.741 22.24C149.117 22.24 153.309 23.968 156.317 27.424C159.325 30.88 160.829 35.712 160.829 41.92V46.912H148.829V42.496C148.829 39.296 147.997 36.864 146.333 35.2C144.669 33.472 142.301 32.608 139.229 32.608C136.029 32.608 133.597 33.568 131.933 35.488C130.269 37.408 129.437 40.128 129.437 43.648V76H117.437ZM199.288 76.96C195.576 76.96 192.472 76.032 189.976 74.176C187.48 72.32 185.752 69.728 184.792 66.4V76H173.08V5.92H185.08V20.704L184.696 32.8C185.72 29.472 187.48 26.88 189.976 25.024C192.536 23.168 195.64 22.24 199.288 22.24C204.472 22.24 208.632 24.064 211.768 27.712C214.904 31.36 216.472 36.288 216.472 42.496V56.8C216.472 62.944 214.872 67.84 211.672 71.488C208.536 75.136 204.408 76.96 199.288 76.96ZM194.776 66.592C197.848 66.592 200.216 65.76 201.88 64.096C203.608 62.432 204.472 59.872 204.472 56.416V42.784C204.472 39.328 203.608 36.768 201.88 35.104C200.216 33.44 197.848 32.608 194.776 32.608C191.704 32.608 189.304 33.536 187.576 35.392C185.912 37.248 185.08 39.872 185.08 43.264V55.936C185.08 59.328 185.912 61.952 187.576 63.808C189.304 65.664 191.704 66.592 194.776 66.592ZM239.09 93.28L246.578 73.12L226.706 23.2H239.378L249.554 50.176C250.13 51.776 250.706 53.536 251.282 55.456C251.858 57.312 252.274 59.04 252.53 60.64C252.722 59.04 253.074 57.312 253.586 55.456C254.162 53.536 254.738 51.776 255.314 50.176L264.722 23.2H277.394L251.666 93.28H239.09ZM294.253 49.888V38.752H324.973V49.888H294.253ZM364.967 76.864C358.695 76.864 353.735 75.456 350.087 72.64C346.439 69.76 344.615 65.888 344.615 61.024H356.423C356.423 63.072 357.159 64.64 358.631 65.728C360.167 66.816 362.279 67.36 364.967 67.36H369.191C372.071 67.36 374.279 66.816 375.815 65.728C377.415 64.64 378.215 63.072 378.215 61.024C378.215 59.104 377.671 57.696 376.583 56.8C375.495 55.84 373.831 55.2 371.591 54.88L358.439 53.152C354.215 52.576 350.951 50.944 348.647 48.256C346.407 45.568 345.287 42.08 345.287 37.792C345.287 32.8 346.951 28.992 350.279 26.368C353.607 23.68 358.407 22.336 364.679 22.336H369.095C374.983 22.336 379.719 23.68 383.303 26.368C386.887 29.056 388.743 32.64 388.871 37.12H376.967C376.903 35.456 376.167 34.144 374.759 33.184C373.351 32.16 371.463 31.648 369.095 31.648H364.679C362.119 31.648 360.167 32.192 358.823 33.28C357.479 34.304 356.807 35.712 356.807 37.504C356.807 39.104 357.287 40.288 358.247 41.056C359.271 41.824 360.743 42.304 362.663 42.496L375.047 44.224C379.911 44.8 383.559 46.528 385.991 49.408C388.487 52.224 389.735 56.032 389.735 60.832C389.735 65.952 387.975 69.92 384.455 72.736C380.999 75.488 375.911 76.864 369.191 76.864H364.967ZM424.834 76.96C420.354 76.96 416.45 76.096 413.122 74.368C409.794 72.64 407.202 70.208 405.346 67.072C403.554 63.872 402.658 60.128 402.658 55.84V43.36C402.658 39.072 403.554 35.36 405.346 32.224C407.202 29.024 409.794 26.56 413.122 24.832C416.45 23.104 420.354 22.24 424.834 22.24C429.25 22.24 433.09 23.104 436.354 24.832C439.682 26.56 442.242 28.992 444.034 32.128C445.89 35.2 446.818 38.816 446.818 42.976V52.576H414.178V56.224C414.178 59.808 415.106 62.528 416.962 64.384C418.818 66.176 421.442 67.072 424.834 67.072C427.33 67.072 429.442 66.656 431.17 65.824C432.962 64.928 434.018 63.648 434.338 61.984H446.242C445.41 66.528 443.042 70.176 439.138 72.928C435.234 75.616 430.466 76.96 424.834 76.96ZM414.178 42.976V44.8L435.298 44.704V42.88C435.298 39.232 434.402 36.416 432.61 34.432C430.818 32.448 428.226 31.456 424.834 31.456C421.314 31.456 418.658 32.48 416.866 34.528C415.074 36.512 414.178 39.328 414.178 42.976ZM482.3 76.864C475.516 76.864 470.14 74.976 466.172 71.2C462.204 67.36 460.22 62.208 460.22 55.744V43.456C460.22 36.928 462.204 31.776 466.172 28C470.14 24.224 475.516 22.336 482.3 22.336C489.084 22.336 494.46 24.224 498.428 28C502.396 31.776 504.38 36.928 504.38 43.456V55.744C504.38 62.208 502.396 67.36 498.428 71.2C494.46 74.976 489.084 76.864 482.3 76.864ZM482.3 66.4C485.5 66.4 487.964 65.536 489.692 63.808C491.484 62.016 492.38 59.456 492.38 56.128V43.072C492.38 39.744 491.484 37.216 489.692 35.488C487.964 33.696 485.5 32.8 482.3 32.8C479.1 32.8 476.604 33.696 474.812 35.488C473.084 37.216 472.22 39.744 472.22 43.072V56.128C472.22 59.456 473.084 62.016 474.812 63.808C476.604 65.536 479.1 66.4 482.3 66.4Z" fill="black"/>
</svg>
